<svg width="100%" height="100%" viewBox="0 0 49 45" fill="none" xmlns="http://www.w3.org/2000/svg">
<g clip-path="url(#clip0_6394_2323)">
<path d="M4.17616 44.5663C6.52387 44.876 7.69994 43.1816 8.1393 41.2307C8.34788 40.3017 8.3612 39.3373 8.24581 38.3905L5.48981 16.1561H0V39.2621C0 42.0447 2.08586 44.3407 4.78861 44.6857C4.58002 44.6592 4.37587 44.6194 4.1806 44.5707L4.17616 44.5663Z" fill="#C5D0D9"/>
<path d="M4.8374 44.6902C5.05043 44.7167 5.26789 44.7344 5.49423 44.7344C5.27233 44.7344 5.05486 44.7211 4.8374 44.6902Z" fill="#C5D0D9"/>
<path d="M38.038 17.9876C37.7141 17.4877 36.9773 17.5186 36.6933 18.0407L35.9255 19.4696C35.6548 19.9783 34.9403 20.0226 34.6075 19.5581L34.3057 19.1422C33.9728 18.6777 33.2672 18.7219 32.992 19.2218L31.5408 21.8364C31.2523 22.354 31.6296 22.991 32.2242 22.991L39.8221 22.9689C40.439 22.9689 40.8073 22.2876 40.4745 21.77L38.0336 17.9964L38.038 17.9876Z" fill="#C5D0D9"/>
<path d="M33.6488 17.3151C34.1814 17.3151 34.6119 16.886 34.6119 16.3552C34.6119 15.8243 34.1814 15.3952 33.6488 15.3952C33.1163 15.3952 32.6858 15.8243 32.6858 16.3552C32.6858 16.886 33.1163 17.3151 33.6488 17.3151Z" fill="#C5D0D9"/>
<path d="M10.9796 0.72998V39.2576C10.9796 42.2791 8.5209 44.73 5.48975 44.73H43.5101C46.5413 44.73 48.9999 42.2791 48.9999 39.2576V0.72998H10.9796ZM18.431 6.70223H32.1843C32.9921 6.70223 33.6444 7.35254 33.6444 8.15769C33.6444 8.96284 32.9921 9.61315 32.1843 9.61315H18.431C17.6232 9.61315 16.9709 8.96284 16.9709 8.15769C16.9709 7.35254 17.6232 6.70223 18.431 6.70223ZM18.431 12.2188H24.3202C25.1279 12.2188 25.7803 12.8691 25.7803 13.6743C25.7803 14.4794 25.1279 15.1297 24.3202 15.1297H18.431C17.6232 15.1297 16.9709 14.4794 16.9709 13.6743C16.9709 12.8691 17.6232 12.2188 18.431 12.2188ZM18.431 17.731H24.3202C25.1279 17.731 25.7803 18.3813 25.7803 19.1864C25.7803 19.9916 25.1279 20.6419 24.3202 20.6419H18.431C17.6232 20.6419 16.9709 19.9916 16.9709 19.1864C16.9709 18.3813 17.6232 17.731 18.431 17.731ZM18.431 23.2432H24.3202C25.1279 23.2432 25.7803 23.8935 25.7803 24.6986C25.7803 25.5038 25.1279 26.1541 24.3202 26.1541H18.431C17.6232 26.1541 16.9709 25.5038 16.9709 24.6986C16.9709 23.8935 17.6232 23.2432 18.431 23.2432ZM35.0557 37.1873H18.431C17.6232 37.1873 16.9709 36.5369 16.9709 35.7318C16.9709 34.9266 17.6232 34.2763 18.431 34.2763H35.0557C35.8634 34.2763 36.5158 34.9266 36.5158 35.7318C36.5158 36.5369 35.8634 37.1873 35.0557 37.1873ZM41.553 31.6707H18.4354C17.6277 31.6707 16.9753 31.0203 16.9753 30.2152C16.9753 29.4101 17.6277 28.7597 18.4354 28.7597H41.553C42.3607 28.7597 43.0131 29.4101 43.0131 30.2152C43.0131 31.0203 42.3607 31.6707 41.553 31.6707ZM43.0131 22.8937C43.0131 24.6986 41.5441 26.1585 39.7378 26.1585H32.3042C30.4935 26.1585 29.0289 24.6942 29.0289 22.8937V15.4836C29.0289 13.6787 30.4979 12.2188 32.3042 12.2188H39.7378C41.5485 12.2188 43.0131 13.6831 43.0131 15.4836V22.8937Z" fill="#C5D0D9"/>
</g>
<defs>
<clipPath id="clip0_6394_2323">
<rect width="49" height="44" fill="white" transform="translate(0 0.72998)"/>
</clipPath>
</defs>
</svg>
