<svg width="100%" height="100%" viewBox="0 0 169 169" fill="none" xmlns="http://www.w3.org/2000/svg">
<g clip-path="url(#clip0_6394_2309)">
<path d="M0 56.1056C0 9.90451 9.90451 0 56.1056 0H112.889C159.095 0 168.995 9.90451 168.995 56.1056V112.889C168.995 159.095 159.091 168.995 112.889 168.995H56.1056C9.90451 169 0 159.095 0 112.889V56.1056Z" fill="#F03B49"/>
<path d="M55.3726 36.9549V111.872H41.2539L43.543 132.05H125.452C131.985 132.05 137.282 126.754 137.282 120.221V36.9549H55.3726Z" fill="white"/>
<path d="M31.7184 70.2891H55.3725V120.221C55.3725 126.749 50.0711 132.05 43.5429 132.05C37.0147 132.05 31.7134 126.749 31.7134 120.221V70.2891H31.7184Z" fill="#DEBFBF"/>
<path d="M101.165 49.8617H71.3215C69.6413 49.8617 68.2793 51.2237 68.2793 52.9038V53.1183C68.2793 54.7984 69.6413 56.1604 71.3215 56.1604H101.165C102.845 56.1604 104.207 54.7984 104.207 53.1183V52.9038C104.207 51.2237 102.845 49.8617 101.165 49.8617Z" fill="#D3D3D5"/>
<path d="M84.2233 61.776H71.3215C69.6413 61.776 68.2793 63.138 68.2793 64.8182V65.0326C68.2793 66.7128 69.6413 68.0748 71.3215 68.0748H84.2233C85.9034 68.0748 87.2654 66.7128 87.2654 65.0326V64.8182C87.2654 63.138 85.9034 61.776 84.2233 61.776Z" fill="#D3D3D5"/>
<path d="M84.2233 73.6953H71.3215C69.6413 73.6953 68.2793 75.0573 68.2793 76.7375V76.9519C68.2793 78.6321 69.6413 79.9941 71.3215 79.9941H84.2233C85.9034 79.9941 87.2654 78.6321 87.2654 76.9519V76.7375C87.2654 75.0573 85.9034 73.6953 84.2233 73.6953Z" fill="#D3D3D5"/>
<path d="M84.2233 85.6096H71.3215C69.6413 85.6096 68.2793 86.9717 68.2793 88.6518V88.8663C68.2793 90.5464 69.6413 91.9084 71.3215 91.9084H84.2233C85.9034 91.9084 87.2654 90.5464 87.2654 88.8663V88.6518C87.2654 86.9717 85.9034 85.6096 84.2233 85.6096Z" fill="#D3D3D5"/>
<path d="M117.463 61.776H101.17C97.3494 61.776 94.2524 64.8729 94.2524 68.6932V84.9863C94.2524 88.8065 97.3494 91.9034 101.17 91.9034H117.463C121.283 91.9034 124.38 88.8065 124.38 84.9863V68.6932C124.38 64.8729 121.283 61.776 117.463 61.776Z" fill="#22232E"/>
<path d="M121.338 97.524H71.3215C69.6413 97.524 68.2793 98.886 68.2793 100.566V100.781C68.2793 102.461 69.6413 103.823 71.3215 103.823H121.338C123.018 103.823 124.38 102.461 124.38 100.781V100.566C124.38 98.886 123.018 97.524 121.338 97.524Z" fill="#D3D3D5"/>
<path d="M107.344 109.438H71.3215C69.6413 109.438 68.2793 110.8 68.2793 112.48V112.695C68.2793 114.375 69.6413 115.737 71.3215 115.737H107.344C109.024 115.737 110.386 114.375 110.386 112.695V112.48C110.386 110.8 109.024 109.438 107.344 109.438Z" fill="#D3D3D5"/>
<path d="M99.6636 82.5475L102.791 76.9021C103.389 75.8248 104.905 75.7351 105.623 76.7325L106.272 77.6352C107 78.6426 108.531 78.5428 109.114 77.4457L110.765 74.3586C111.368 73.2315 112.964 73.1667 113.658 74.2439L118.914 82.4029C119.632 83.52 118.834 84.9862 117.508 84.9912L101.135 85.0411C99.8531 85.0411 99.0402 83.6696 99.6586 82.5475H99.6636Z" fill="#DEBFBF"/>
<path d="M104.207 72.7976C105.355 72.7976 106.286 71.8665 106.286 70.718C106.286 69.5694 105.355 68.6383 104.207 68.6383C103.058 68.6383 102.127 69.5694 102.127 70.718C102.127 71.8665 103.058 72.7976 104.207 72.7976Z" fill="#DEBFBF"/>
<path d="M47.3931 70.2891L55.3725 120.216V70.2891H47.3931Z" fill="#22232E"/>
</g>
<defs>
<clipPath id="clip0_6394_2309">
<rect width="169" height="169" fill="white"/>
</clipPath>
</defs>
</svg>
